# xmcd
#
# Track frame offsets:
#	150
#	6497
#	30432
#	47622
#	68503
#	75848
#	91360
#	113116
#	133280
#	154270
#	174651
#	179574
#	195143
#	219119
#	238759
#	246754
#	266865
#	285779
#	303925
#
# Disc length: 4115 seconds
#
# Revision: 0
# Processed by: cddbd v1.4PL0 Copyright (c) Steve Scherf et al.
# Submitted via: audiograbber 1.81.02
#
DISCID=f4101113
DTITLE=St. Lunatics - Free City 
DYEAR=2001
DGENRE=Rap
TTITLE0=Just for You [The Introductory Poem]
TTITLE1=S.T.L.
TTITLE2=Okay 
TTITLE3=Summer in the City - St. Lunatics 
TTITLE4=Mad Baby Daddy Skit, Pt. 1 
TTITLE5=Boom D Boom 
TTITLE6=Midwest Swing 
TTITLE7=Show Em What They Won 
TTITLE8=Let Me in Now 
TTITLE9=Dis Iz da Life 
TTITLE10=MBD Skit, Pt. 2
TTITLE11=Scandalous 
TTITLE12=Groovin Tonight - City Spud 
TTITLE13=Jang a Lang - The Penelopes 
TTITLE14=MBD Skit, Pt. 3
TTITLE15=Real N****z
TTITLE16=Here We Come 
TTITLE17=Love You So - Cardan 
TTITLE18=MBD Skit, Pt. 4
EXTD=
EXTT0=
EXTT1=
EXTT2=
EXTT3=
EXTT4=
EXTT5=
EXTT6=
EXTT7=
EXTT8=
EXTT9=
EXTT10=
EXTT11=
EXTT12=
EXTT13=
EXTT14=
EXTT15=
EXTT16=
EXTT17=
EXTT18=
PLAYORDER=
